M48
; DRILL file {KiCad (5.1.9)-1} date 02/02/21 00:48:29
; FORMAT={-:-/ absolute / metric / decimal}
; #@! TF.CreationDate,2021-02-02T00:48:29+00:00
; #@! TF.GenerationSoftware,Kicad,Pcbnew,(5.1.9)-1
; #@! TF.FileFunction,Plated,1,2,PTH
FMAT,2
METRIC
T1C0.350
T2C0.750
T3C0.800
T4C0.900
T5C0.950
T6C0.990
T7C1.000
T8C1.020
T9C1.100
T10C1.300
T11C2.300
T12C3.200
%
G90
G05
T1
X136.636Y-84.619
X139.125Y-63.931
X141.83Y-105.904
X144.205Y-113.219
X149.361Y-65.315
X156.397Y-99.262
X160.143Y-65.569
X162.252Y-71.436
X171.561Y-70.878
X176.26Y-101.916
X178.406Y-88.665
X179.066Y-98.081
X181.205Y-49.13
X183.826Y-47.619
X183.892Y-93.763
X187.144Y-49.834
X189.538Y-53.771
X191.919Y-88.099
X192.478Y-58.571
X195.729Y-82.485
T2
X171.18Y-113.881
X172.45Y-113.881
X173.72Y-113.881
T3
X107.442Y-41.669
X107.442Y-46.435
X107.442Y-51.202
X107.442Y-55.968
X107.442Y-60.735
X107.442Y-65.501
X107.442Y-70.268
X107.442Y-75.034
X107.442Y-79.8
X107.442Y-84.567
X107.442Y-89.333
X107.442Y-94.1
X107.442Y-98.866
X107.442Y-103.633
X107.442Y-108.399
X107.442Y-113.166
X107.442Y-117.932
X122.682Y-41.669
X122.682Y-46.435
X122.682Y-51.202
X122.682Y-55.968
X122.682Y-60.735
X122.682Y-65.501
X122.682Y-70.268
X122.682Y-75.034
X122.682Y-79.8
X122.682Y-84.567
X122.682Y-89.333
X122.682Y-94.1
X122.682Y-98.866
X122.682Y-103.633
X122.682Y-108.399
X122.682Y-113.166
X122.682Y-117.932
X146.008Y-116.294
X161.248Y-116.294
X161.794Y-91.567
X161.794Y-94.067
X162.048Y-99.313
X162.048Y-104.313
X162.163Y-41.614
X162.163Y-45.886
X162.163Y-50.157
X162.163Y-54.428
X162.163Y-58.699
X162.163Y-62.971
X162.163Y-67.242
X162.163Y-80.056
X162.163Y-84.327
X166.417Y-110.883
X166.417Y-115.883
X166.951Y-99.313
X166.951Y-104.313
X169.224Y-91.567
X169.224Y-94.067
X171.916Y-99.389
X171.916Y-104.389
X176.831Y-91.706
X176.831Y-94.206
X177.403Y-41.614
X177.403Y-45.886
X177.403Y-50.157
X177.403Y-54.428
X177.403Y-58.699
X177.403Y-62.971
X177.403Y-67.242
X177.403Y-80.056
X177.403Y-84.327
X178.495Y-110.924
X178.495Y-115.924
X183.537Y-86.651
X183.537Y-101.891
X184.223Y-62.838
X186.723Y-62.838
X187.715Y-86.651
X187.715Y-101.891
T4
X147.418Y-111.709
X160.118Y-111.709
T5
X99.622Y-105.766
X99.622Y-108.266
X101.622Y-105.766
X101.622Y-108.266
T6
X195.377Y-63.296
X195.377Y-67.796
X195.377Y-74.599
X195.377Y-79.099
X195.377Y-85.902
X195.377Y-90.402
X195.377Y-97.206
X195.377Y-101.706
T7
X95.881Y-88.645
X95.881Y-91.185
X136.839Y-110.578
X136.839Y-113.118
X136.839Y-115.658
X136.839Y-118.198
X139.379Y-110.578
X139.379Y-113.118
X139.379Y-115.658
X139.379Y-118.198
T8
X133.854Y-41.326
X133.854Y-43.866
X133.854Y-46.406
X133.854Y-48.946
X133.854Y-51.486
X133.854Y-54.026
X133.854Y-56.566
X133.854Y-59.106
X133.854Y-61.646
X133.854Y-64.186
X133.854Y-66.726
X133.854Y-69.266
X133.854Y-71.806
X133.854Y-74.346
X133.854Y-76.886
X133.854Y-79.426
X133.854Y-81.966
X133.854Y-84.506
X133.854Y-87.046
X133.854Y-89.586
X140.204Y-89.356
X142.744Y-89.356
X145.284Y-89.356
X151.634Y-41.326
X151.634Y-43.866
X151.634Y-46.406
X151.634Y-48.946
X151.634Y-51.486
X151.634Y-54.026
X151.634Y-56.566
X151.634Y-59.106
X151.634Y-61.646
X151.634Y-64.186
X151.634Y-66.726
X151.634Y-69.266
X151.634Y-71.806
X151.634Y-74.346
X151.634Y-76.886
X151.634Y-79.426
X151.634Y-81.966
X151.634Y-84.506
X151.634Y-87.046
X151.634Y-89.586
T9
X94.726Y-61.209
X94.726Y-63.499
X94.726Y-65.789
X94.726Y-68.079
X94.726Y-70.369
X97.266Y-62.354
X97.266Y-64.644
X97.266Y-66.934
X97.266Y-69.224
X97.266Y-71.514
X99.806Y-61.209
X99.806Y-63.499
X99.806Y-65.789
X99.806Y-68.079
X99.806Y-70.369
T10
X192.887Y-62.046
X192.887Y-69.056
X192.887Y-73.349
X192.887Y-80.359
X192.887Y-84.652
X192.887Y-91.662
X192.887Y-95.956
X192.887Y-102.966
T11
X96.762Y-101.016
X96.762Y-113.016
T12
X97.266Y-53.544
X97.266Y-78.534
T0
M30
