%TF.GenerationSoftware,KiCad,Pcbnew,(5.1.9)-1*%
%TF.CreationDate,2021-02-02T00:48:23+00:00*%
%TF.ProjectId,pico_vga_sd_aud,7069636f-5f76-4676-915f-73645f617564,rev?*%
%TF.SameCoordinates,Original*%
%TF.FileFunction,Soldermask,Bot*%
%TF.FilePolarity,Negative*%
%FSLAX46Y46*%
G04 Gerber Fmt 4.6, Leading zero omitted, Abs format (unit mm)*
G04 Created by KiCad (PCBNEW (5.1.9)-1) date 2021-02-02 00:48:23*
%MOMM*%
%LPD*%
G01*
G04 APERTURE LIST*
%ADD10O,1.700000X1.700000*%
%ADD11R,1.700000X1.700000*%
%ADD12O,1.500000X1.500000*%
%ADD13O,1.800000X1.800000*%
%ADD14O,1.600000X1.600000*%
%ADD15C,1.600000*%
%ADD16R,1.600000X1.600000*%
%ADD17C,2.100000*%
%ADD18C,1.750000*%
%ADD19R,1.050000X1.500000*%
%ADD20O,1.050000X1.500000*%
%ADD21C,4.000000*%
%ADD22R,1.800000X1.800000*%
%ADD23C,1.700000*%
%ADD24C,2.700000*%
G04 APERTURE END LIST*
D10*
%TO.C,U2*%
X145284400Y-89355800D03*
D11*
X142744400Y-89355800D03*
D10*
X140204400Y-89355800D03*
D12*
X145169400Y-44485800D03*
X140319400Y-44485800D03*
D13*
X145469400Y-41455800D03*
X140019400Y-41455800D03*
D10*
X151634400Y-41325800D03*
X151634400Y-43865800D03*
D11*
X151634400Y-46405800D03*
D10*
X151634400Y-48945800D03*
X151634400Y-51485800D03*
X151634400Y-54025800D03*
X151634400Y-56565800D03*
D11*
X151634400Y-59105800D03*
D10*
X151634400Y-61645800D03*
X151634400Y-64185800D03*
X151634400Y-66725800D03*
X151634400Y-69265800D03*
D11*
X151634400Y-71805800D03*
D10*
X151634400Y-74345800D03*
X151634400Y-76885800D03*
X151634400Y-79425800D03*
X151634400Y-81965800D03*
D11*
X151634400Y-84505800D03*
D10*
X151634400Y-87045800D03*
X151634400Y-89585800D03*
X133854400Y-89585800D03*
X133854400Y-87045800D03*
D11*
X133854400Y-84505800D03*
D10*
X133854400Y-81965800D03*
X133854400Y-79425800D03*
X133854400Y-76885800D03*
X133854400Y-74345800D03*
D11*
X133854400Y-71805800D03*
D10*
X133854400Y-69265800D03*
X133854400Y-66725800D03*
X133854400Y-64185800D03*
X133854400Y-61645800D03*
D11*
X133854400Y-59105800D03*
D10*
X133854400Y-56565800D03*
X133854400Y-54025800D03*
X133854400Y-51485800D03*
X133854400Y-48945800D03*
D11*
X133854400Y-46405800D03*
D10*
X133854400Y-43865800D03*
X133854400Y-41325800D03*
%TD*%
D14*
%TO.C,R24*%
X162162700Y-50156820D03*
D15*
X177402700Y-50156820D03*
%TD*%
D14*
%TO.C,R23*%
X162162700Y-45885560D03*
D15*
X177402700Y-45885560D03*
%TD*%
%TO.C,C21*%
X161794400Y-94067000D03*
D16*
X161794400Y-91567000D03*
%TD*%
D15*
%TO.C,C19*%
X186722600Y-62838500D03*
D16*
X184222600Y-62838500D03*
%TD*%
D15*
%TO.C,C15*%
X169223900Y-94067000D03*
D16*
X169223900Y-91567000D03*
%TD*%
D15*
%TO.C,C14*%
X176831200Y-94205600D03*
D16*
X176831200Y-91705600D03*
%TD*%
D17*
%TO.C,SW4*%
X192886800Y-73349066D03*
D18*
X195376800Y-74599066D03*
X195376800Y-79099066D03*
D17*
X192886800Y-80359066D03*
%TD*%
%TO.C,SW3*%
X192886800Y-84652432D03*
D18*
X195376800Y-85902432D03*
X195376800Y-90402432D03*
D17*
X192886800Y-91662432D03*
%TD*%
%TO.C,SW2*%
X192886800Y-95955800D03*
D18*
X195376800Y-97205800D03*
X195376800Y-101705800D03*
D17*
X192886800Y-102965800D03*
%TD*%
%TO.C,SW1*%
X192886800Y-62045700D03*
D18*
X195376800Y-63295700D03*
X195376800Y-67795700D03*
D17*
X192886800Y-69055700D03*
%TD*%
D14*
%TO.C,R8*%
X177402700Y-84326900D03*
D15*
X162162700Y-84326900D03*
%TD*%
D14*
%TO.C,R7*%
X162162700Y-67241860D03*
D15*
X177402700Y-67241860D03*
%TD*%
D19*
%TO.C,U1*%
X171179700Y-113880900D03*
D20*
X173719700Y-113880900D03*
X172449700Y-113880900D03*
%TD*%
D21*
%TO.C,J5*%
X96761800Y-113016400D03*
X96761800Y-101016400D03*
D15*
X99621800Y-108266400D03*
X99621800Y-105766400D03*
X101621800Y-105766400D03*
D16*
X101621800Y-108266400D03*
%TD*%
D13*
%TO.C,D1*%
X147418000Y-111709200D03*
D22*
X160118000Y-111709200D03*
%TD*%
D14*
%TO.C,R40*%
X122682000Y-89333380D03*
D15*
X107442000Y-89333380D03*
%TD*%
D14*
%TO.C,R39*%
X122682000Y-94099848D03*
D15*
X107442000Y-94099848D03*
%TD*%
D14*
%TO.C,R38*%
X122682000Y-98866316D03*
D15*
X107442000Y-98866316D03*
%TD*%
D14*
%TO.C,R37*%
X122682000Y-103632784D03*
D15*
X107442000Y-103632784D03*
%TD*%
D14*
%TO.C,R36*%
X122682000Y-108399252D03*
D15*
X107442000Y-108399252D03*
%TD*%
D14*
%TO.C,R35*%
X122682000Y-65501040D03*
D15*
X107442000Y-65501040D03*
%TD*%
D14*
%TO.C,R34*%
X122682000Y-70267508D03*
D15*
X107442000Y-70267508D03*
%TD*%
D14*
%TO.C,R33*%
X122682000Y-75033976D03*
D15*
X107442000Y-75033976D03*
%TD*%
D14*
%TO.C,R32*%
X122682000Y-79800444D03*
D15*
X107442000Y-79800444D03*
%TD*%
D14*
%TO.C,R31*%
X122682000Y-84566912D03*
D15*
X107442000Y-84566912D03*
%TD*%
D14*
%TO.C,R30*%
X122682000Y-41668700D03*
D15*
X107442000Y-41668700D03*
%TD*%
D14*
%TO.C,R29*%
X122682000Y-46435168D03*
D15*
X107442000Y-46435168D03*
%TD*%
D14*
%TO.C,R28*%
X122682000Y-51201636D03*
D15*
X107442000Y-51201636D03*
%TD*%
D14*
%TO.C,R27*%
X122682000Y-55968104D03*
D15*
X107442000Y-55968104D03*
%TD*%
D14*
%TO.C,R26*%
X122682000Y-60734572D03*
D15*
X107442000Y-60734572D03*
%TD*%
D14*
%TO.C,R22*%
X177402700Y-54428080D03*
D15*
X162162700Y-54428080D03*
%TD*%
D14*
%TO.C,R21*%
X177402700Y-58699340D03*
D15*
X162162700Y-58699340D03*
%TD*%
D14*
%TO.C,R20*%
X177402700Y-62970600D03*
D15*
X162162700Y-62970600D03*
%TD*%
D14*
%TO.C,R11*%
X122682000Y-117932200D03*
D15*
X107442000Y-117932200D03*
%TD*%
D14*
%TO.C,R10*%
X122682000Y-113165720D03*
D15*
X107442000Y-113165720D03*
%TD*%
D14*
%TO.C,R9*%
X162162700Y-41614300D03*
D15*
X177402700Y-41614300D03*
%TD*%
D14*
%TO.C,R4*%
X177402700Y-80055640D03*
D15*
X162162700Y-80055640D03*
%TD*%
D14*
%TO.C,R3*%
X146008300Y-116293900D03*
D15*
X161248300Y-116293900D03*
%TD*%
D14*
%TO.C,R2*%
X183536800Y-101891000D03*
D15*
X183536800Y-86651000D03*
%TD*%
D14*
%TO.C,R1*%
X187715100Y-101891000D03*
D15*
X187715100Y-86651000D03*
%TD*%
D10*
%TO.C,J7*%
X136838900Y-110577800D03*
X139378900Y-110577800D03*
X136838900Y-113117800D03*
X139378900Y-113117800D03*
X136838900Y-115657800D03*
X139378900Y-115657800D03*
X136838900Y-118197800D03*
D11*
X139378900Y-118197800D03*
%TD*%
D10*
%TO.C,J6*%
X95881400Y-91184900D03*
D11*
X95881400Y-88644900D03*
%TD*%
%TO.C,J4*%
X99805700Y-70368900D03*
D23*
X99805700Y-68078900D03*
X99805700Y-65788900D03*
X99805700Y-63498900D03*
X99805700Y-61208900D03*
X94725700Y-70368900D03*
X94725700Y-65788900D03*
X94725700Y-68078900D03*
X94725700Y-61208900D03*
X94725700Y-63498900D03*
X97265700Y-62353900D03*
X97265700Y-64643900D03*
X97265700Y-71513900D03*
X97265700Y-69223900D03*
X97265700Y-66933900D03*
D21*
X97265700Y-78533900D03*
X97265700Y-53543900D03*
%TD*%
D23*
%TO.C,J2*%
X194812500Y-111454100D03*
X187812500Y-111454100D03*
%TD*%
D24*
%TO.C,H4*%
X194712800Y-123989000D03*
%TD*%
%TO.C,H3*%
X89712800Y-123989000D03*
%TD*%
%TO.C,H2*%
X194712800Y-38989000D03*
%TD*%
%TO.C,H1*%
X89712800Y-38989000D03*
%TD*%
D15*
%TO.C,C8*%
X171916300Y-104389100D03*
X171916300Y-99389100D03*
%TD*%
%TO.C,C7*%
X162048400Y-104312900D03*
X162048400Y-99312900D03*
%TD*%
%TO.C,C4*%
X166950600Y-104312900D03*
X166950600Y-99312900D03*
%TD*%
%TO.C,C2*%
X178494900Y-110924500D03*
X178494900Y-115924500D03*
%TD*%
%TO.C,C1*%
X166417200Y-115882600D03*
X166417200Y-110882600D03*
%TD*%
M02*
